<svg xmlns="http://www.w3.org/2000/svg" viewBox="0 0 400 200">
    <!-- Definitions -->
    <defs>
        <!-- Ice cream shadow -->
        <filter id="iceShadow" x="-20%" y="-20%" width="140%" height="140%">
            <feGaussianBlur in="SourceAlpha" stdDeviation="2"/>
            <feOffset dx="2" dy="2" result="offsetblur"/>
            <feComponentTransfer>
                <feFuncA type="linear" slope="0.2"/>
            </feComponentTransfer>
            <feMerge>
                <feMergeNode/>
                <feMergeNode in="SourceGraphic"/>
            </feMerge>
        </filter>
        
        <!-- Coin gradient -->
        <linearGradient id="coinGrad" x1="0%" y1="0%" x2="100%" y2="100%">
            <stop offset="0%" style="stop-color:#ffd700;stop-opacity:1"/>
            <stop offset="100%" style="stop-color:#daa520;stop-opacity:1"/>
        </linearGradient>

        <!-- Waffle cone texture -->
        <pattern id="wafflePattern" patternUnits="userSpaceOnUse" width="20" height="20" patternTransform="rotate(45)">
            <rect width="20" height="20" fill="#d4a469"/>
            <path d="M 0 0 L 20 0 M 0 10 L 20 10 M 0 20 L 20 20" stroke="#b5835a" stroke-width="2"/>
            <path d="M 0 0 L 0 20 M 10 0 L 10 20 M 20 0 L 20 20" stroke="#b5835a" stroke-width="2"/>
        </pattern>

        <!-- Coin side gradient -->
        <linearGradient id="coinSideGrad" x1="0%" y1="0%" x2="100%" y2="0%">
            <stop offset="0%" style="stop-color:#b58a20;stop-opacity:1"/>
            <stop offset="50%" style="stop-color:#ffd700;stop-opacity:1"/>
            <stop offset="100%" style="stop-color:#b58a20;stop-opacity:1"/>
        </linearGradient>
    </defs>

    <!-- Ice cream assembly (centered and rotated) -->
    <g transform="translate(200, 80) rotate(-15)" filter="url(#iceShadow)">
        <!-- Ice cream scoop -->
        <path d="M -25 0 Q -25 -20, 0 -20 Q 25 -20, 25 0 Q 25 20, 0 25 Q -25 20, -25 0" 
              fill="#ffcdd2" 
              stroke="#ef9a9a" 
              stroke-width="2"/>
        <path d="M -20 -2 Q -20 -15, 0 -15 Q 20 -15, 20 -2" 
              fill="none"
              stroke="#ef9a9a" 
              stroke-width="1.5"
              stroke-dasharray="2,3"/>

        <!-- Cone (inverted) -->
        <path d="M -35 0 L 0 80 L 35 0" 
              fill="url(#wafflePattern)"
              stroke="#8d6e63"
              stroke-width="2"
              transform="rotate(180 0 0)"/>
    </g>

    <!-- Falling/spinning coins -->
    <!-- Coin 1 (full face) -->
    <g transform="translate(240, 140)">
        <circle cx="0" cy="0" r="20" 
                fill="url(#coinGrad)" 
                stroke="#daa520" 
                stroke-width="2"/>
        <text x="0" y="5" 
              font-family="Arial" 
              font-weight="bold" 
              font-size="16" 
              text-anchor="middle" 
              fill="#8B4513">$?</text>
    </g>

    <!-- Coin 2 (slight angle) -->
    <g transform="translate(180, 160) rotate(-30)">
        <ellipse cx="0" cy="0" rx="20" ry="18" 
                fill="url(#coinGrad)" 
                stroke="#daa520" 
                stroke-width="2"/>
        <text x="0" y="5" 
              font-family="Arial" 
              font-weight="bold" 
              font-size="16" 
              text-anchor="middle" 
              fill="#8B4513"
              transform="rotate(30)">$?</text>
    </g>

    <!-- Coin 3 (edge view) -->
    <g transform="translate(200, 120) rotate(75)">
        <ellipse cx="0" cy="0" rx="20" ry="4" 
                fill="url(#coinSideGrad)" 
                stroke="#daa520" 
                stroke-width="1"/>
    </g>

    <!-- Coin 4 (almost edge) -->
    <g transform="translate(270, 110) rotate(-60)">
        <ellipse cx="0" cy="0" rx="20" ry="8" 
                fill="url(#coinGrad)" 
                stroke="#daa520" 
                stroke-width="2"/>
    </g>

    <!-- Floating price labels -->
    <text x="50" y="100" 
          font-family="Arial" 
          font-size="24" 
          font-weight="bold" 
          fill="#4CAF50" 
          transform="rotate(-15, 50, 100)">FREE!</text>
    <text x="320" y="100" 
          font-family="Arial" 
          font-size="24" 
          font-weight="bold" 
          fill="#f44336" 
          transform="rotate(15, 320, 100)">$10</text>
</svg>